<svg xmlns="http://www.w3.org/2000/svg" viewBox="0 0 146.13 17.14"><defs><style>.cls-1{fill:#202020;}</style></defs><g id="レイヤー_2" data-name="レイヤー 2"><g id="テキスト"><path class="cls-1" d="M146.1,2.13c.07-.07,0-.15-.23-.07l-.12.21Z" transform="translate(0)"/><path class="cls-1" d="M144.47,2.26c-.25.16-.52.38-.31.48.23-.23.31-.18.55-.45.22-.08.41-.06.39,0s.37-.06.47-.2a1.77,1.77,0,0,0-1.09.28C144.39,2.36,144.46,2.3,144.47,2.26Z" transform="translate(0)"/><path class="cls-1" d="M121.93,8.31l.15,0Z" transform="translate(0)"/><path class="cls-1" d="M108.46,9.46c.07.07.11.09.13.08S108.45,9.43,108.46,9.46Z" transform="translate(0)"/><path class="cls-1" d="M107.26,7.44l.06.13A.26.26,0,0,0,107.26,7.44Z" transform="translate(0)"/><path class="cls-1" d="M121.93,8.31l-.38,0C121.53,8.42,121.75,8.35,121.93,8.31Z" transform="translate(0)"/><path class="cls-1" d="M141.48,3.52a1.09,1.09,0,0,0,.19-.1l-.19.07Z" transform="translate(0)"/><path class="cls-1" d="M128,6.46l.12,0,.07-.09Z" transform="translate(0)"/><path class="cls-1" d="M132.74,5.12c-.11,0-.11.17-.14.24a.37.37,0,0,1,.21-.16A.17.17,0,0,0,132.74,5.12Z" transform="translate(0)"/><path class="cls-1" d="M140.27,3.26l.13,0Z" transform="translate(0)"/><path class="cls-1" d="M124.65,7.37a.09.09,0,0,0-.05,0S124.62,7.37,124.65,7.37Z" transform="translate(0)"/><path class="cls-1" d="M5.55,13.9s0,0,0,0S5.51,13.91,5.55,13.9Z" transform="translate(0)"/><path class="cls-1" d="M.09,15.56l.07,0s0,0,0-.08Z" transform="translate(0)"/><path class="cls-1" d="M105.38,3.27v0C105.46,3.39,105.42,3.33,105.38,3.27Z" transform="translate(0)"/><path class="cls-1" d="M66.39,11.61c.48-.07-.65.44.06.29C66.37,11.88,67,11.45,66.39,11.61Z" transform="translate(0)"/><path class="cls-1" d="M141.35,3.53l-.19.06Z" transform="translate(0)"/><path class="cls-1" d="M66.45,11.9h0l.07,0Z" transform="translate(0)"/><path class="cls-1" d="M95.38.33a.28.28,0,0,0,.11,0S95.46.34,95.38.33Z" transform="translate(0)"/><path class="cls-1" d="M103.23,1.38l-.17-.13Z" transform="translate(0)"/><path class="cls-1" d="M91.45,1.41a1.29,1.29,0,0,0-.28.06h0A.48.48,0,0,1,91.45,1.41Z" transform="translate(0)"/><path class="cls-1" d="M87.42,2.65h.08l.13,0Z" transform="translate(0)"/><path class="cls-1" d="M17.3,9.11a.66.66,0,0,1-.23,0C17.17,9.13,16.6,9.36,17.3,9.11Z" transform="translate(0)"/><path class="cls-1" d="M141.46,3.44a.17.17,0,0,1-.11.09l.13,0S141.49,3.44,141.46,3.44Z" transform="translate(0)"/><path class="cls-1" d="M91.58,2.53l-.65.14C91.12,2.64,91.35,2.59,91.58,2.53Z" transform="translate(0)"/><path class="cls-1" d="M40.87,10.91l-.06-.16A.38.38,0,0,0,40.87,10.91Z" transform="translate(0)"/><path class="cls-1" d="M89.07,3.27a1.22,1.22,0,0,0-.38,0l-.06.06Z" transform="translate(0)"/><path class="cls-1" d="M17.07,9.06Z" transform="translate(0)"/><path class="cls-1" d="M13.1,10.9c.59-.23.21-.28.3-.43.68-.32.37,0,.64,0,.42-.21.7-.49,1-.61,0,0,.1,0,0,.07.41-.3,1.38-.53,1.86-.88a.14.14,0,0,1,.09,0,.28.28,0,0,1-.17-.21c.27-.1.46-.29.6-.21a.41.41,0,0,0-.22.17l.26-.15c.31.08-.36.19-.32.31a11.12,11.12,0,0,1,1.55-.7c.14.14-1,.4-.35.35l-.67.16c.58.08-.4.12.15.23.86-.25.92-.41,1.79-.64.17-.15-.1-.11.06-.26,1.17-.55,1.08.09,1.92-.39a1.11,1.11,0,0,1,.9-.48l-.16.24c.84-.22.4-.4,1.32-.52-.14.1-.65.24-.51.23.6,0,.37-.22.81-.34l.14.15c.89-.26,1.84-.65,2.85-.88-.05.06-.21.15,0,.15a20.07,20.07,0,0,1,4-.64l.45-.21c.11,0,.22,0,.1.09.49,0,0-.1.24-.19s.37,0,.2.1a10.78,10.78,0,0,1,3.31-.48L35.14,5c.71,0,.77-.36,1.44-.26l-.13,0c.76,0,1.59-.09,2.31-.07a1.45,1.45,0,0,1,1.41.71c.12,0,.27.25.33.55s.09.61.25.65c-.12.85-.18.57-.31,1.82,0,.35.17.52.24,1l-.15,0a5.89,5.89,0,0,0,.24.58,2.79,2.79,0,0,0-.11.35l.15.4c0-.16,0-.36,0-.35A7.49,7.49,0,0,1,41.22,12a8.54,8.54,0,0,0,.93,1.22c-.07,0-.23-.19-.38-.33.6.57-.06.23.53.73,0-.1.11,0,.14,0a4.48,4.48,0,0,0,1.29,1.29h-.16a9.69,9.69,0,0,0,3.23,1.66c-.41-.19-.25-.33.1-.23l.09.2c.25,0-.35-.16.15-.15s.25.26,0,.24a5.39,5.39,0,0,0,.56.08c0,.06-.12.06-.16.11.24,0,.93.36,1.29.23l0,.05a13.28,13.28,0,0,0,2.8,0c0-.14.4-.13.69-.27a12,12,0,0,0,2.39-.19c.59-.18.15-.15.4-.28.07.12.92-.08.5.11a18.42,18.42,0,0,0,2.51-.79c-.15,0-.31,0-.24-.06s.53-.09.52,0l-.06,0a16.37,16.37,0,0,1,2.3-.63,5.8,5.8,0,0,0,2.05-.68l-.06,0,1.09-.55c.53-.18-.28.2.13.13,1.14-.65,1.92-.73,2.86-1.26.91,0,2.69-1.19,3.8-1.44l-.09-.05c.22-.2.33-.1.54-.17-.06,0-.32.06-.18-.06,2.18-1.11,4.62-2,6.92-3,.84-.36.28-.64,1.41-.92l-.23.28c1.59-.93,3.43-1.52,5-2.34-.09.07-.07.12-.23.18A2.76,2.76,0,0,0,85,4.58c.26-.09.09.06.27,0,.38-.07.83-.49,1.07-.44,0,0-.09.07-.15.1.21-.13,1.08-.37.82-.42.65-.16,1.18-.5,1.72-.58C89,3,89.81,3,89.85,2.77c0,.23,1.17-.18,1.56-.37-.12.1.37,0,.24.11.46-.12.88-.28.77-.37.92,0,1.7-.61,2.26-.37A15.65,15.65,0,0,1,98.61,1c0,.2-1.4.09-1.32.33a7.42,7.42,0,0,1,3-.18c.29.08-.18.06-.29.09a6.23,6.23,0,0,1,3,1.07.83.83,0,0,1-.2-.08c.16.11.34.3.38.21a1,1,0,0,0-.17-.1c-.15-.34.82.29.89.3-.44-.07.61.85,0,.65.1.09.23.21.27.14.1.18.1.25-.08.13.46.57.4.31.74.89,0,0-.12-.09-.21-.12a2.82,2.82,0,0,1,.72,1.06s0,.06-.12-.09c.45.9.94,1.47,1.38,2.52-.35-.2.11.38,0,.52a6.13,6.13,0,0,0,.38.51l-.07-.26c.3.47.69.78,1,1.17a2.91,2.91,0,0,1-.33-.26,5.77,5.77,0,0,0,.76.72,2.82,2.82,0,0,1-.38-.46c.47.32.1-.18.61.32-.12-.07.41.35.63.56h0a7.51,7.51,0,0,1,.9.31c.08.09-.14.17-.09.23.3,0,1.31.23,1.65,0-.11,0-.12.14-.08.16l.23-.13c.25,0,.29.05.25.13.76,0-.25-.2.64-.19-.06,0,0,0-.17.07a16.19,16.19,0,0,0,2.48-.52c.28.12-.67.22-.37.31,1.14-.34,2.27-.86,3.37-1.12l-.21,0c.08-.29.84-.1,1.35-.37-.12.06-.13.19-.1.15a21.57,21.57,0,0,0,2.6-.88l-.12.11c.45-.07,1.16-.29,1.64-.4.12-.1.39-.17.2-.21,1.56,0,2.72-1,4.1-1-.15,0-.35.16-.23.12l1.08-.37c-.11-.08-.16,0-.41,0a1.85,1.85,0,0,1,.69-.32c-.48.21.05.17.28.18,0,0,0-.09,0-.12.63,0,0-.25.86-.33l0,.07a5.92,5.92,0,0,1,.86-.34c.16.09-.3.15-.29.26.44-.13.81-.49,1.25-.47-.18.08-.45.16-.63.25a2.1,2.1,0,0,0,.85-.09h0l.77-.14h-.2c.46-.49,1.12-.37,1.8-.8-.67.41-.08.15-.1.31.2,0,.51,0,.44,0,.32-.22.61-.08,1.07-.39,0,0,.38-.1.33,0,.45-.17-.13,0-.11-.12.67-.36,1.72-.27,2.68-.78.86-.34,1-.54,1.77-.85.3,0-.17.24-.17.24a4.36,4.36,0,0,0,1.2-.34c-.08.07,0,.08.16.09.34-.1.18-.23.64-.29a1.05,1.05,0,0,1-.28.29c.38-.16.75-.35,1.15-.51.13,0-.21.19-.34.29a4.59,4.59,0,0,0,1.28-.58l-.31,0c.17,0,.12.09,0,.15-.37.21-.58.11-.62.07l.29-.11c-.38-.19-1.17.37-1.76.52l.19-.27-.56.34c-.14,0-.26-.1,0-.21-.45,0-.35.17-.74.16-.05,0,0,0,0,0l-.4.18c.07-.07-.1-.12.16-.17-.77.1-1.15.49-1.47.41l.05,0c-1,.35-.05.17-.78.56L137.21,4l-.06.18c-.1,0-.32.07-.29,0-.37.21.08,0-.12.2-.55,0-1.39.46-1.57.26-.15.16.51,0,0,.18-.23-.21-.62.22-1.12.23.11-.17.57-.22.07-.21-.22.3-.92.21-1.3.36,0,.18-.83.31-1.48.55,0-.07-1.26.25-1.9.36v0c-.07.21-.71.35-1.16.52,0-.11.06-.18.3-.29l-.43.12a1.51,1.51,0,0,1-.49.25l.07-.16a14,14,0,0,1-1.88.6c0,.13.68.17-.08.48,0-.06-.11-.17.09-.25a1.55,1.55,0,0,1-.37.13l.28-.2c-.35,0-.15.14-.42.21,0-.1-.22,0-.2-.1a2.18,2.18,0,0,0,.34-.09,2.72,2.72,0,0,1-.84.07s0,.13-.18.21c-.58.16-.23-.06-.58,0-.12.11-.51.14-.48.29a.4.4,0,0,1-.29,0c-.28.14-1.39.4-1,.46h.08l0,0h0c-.94.41-2,.49-3,.82v0a16.72,16.72,0,0,0-1.66.61c-.18.05-.43,0-.38-.05A3.67,3.67,0,0,1,116,10c.42-.21-.18,0,.43-.19a3.62,3.62,0,0,0-1.31.38c.17-.18-.48,0-.74.07h.43a8.73,8.73,0,0,1-.85.21l.11-.2c-1.17.08-2.07.73-2.93.3-.32.1.6.13.33.25a3.33,3.33,0,0,1-1.16-.45c-.59-.31-.69,0-1.29-.46,0,.1,0,.3-.47,0s-.29-.64,0-.44c.09.08.12.14.11.15s.33.2.2,0h-.09c-.07-.11-.23-.29-.35-.44s-.17-.28-.08-.24c-.29-.27-.18-.07,0,.18a10.34,10.34,0,0,1-.93-1.51c0,.12,0,.24,0,.14-.42-1-.32-.36-.66-1-.1-.41.26,0-.12-.59-.14-.44.1-.15.22,0a7.07,7.07,0,0,1-.62-1.55l.2.31a4.51,4.51,0,0,1-.28-.52v.24c-.08-.2-.17-.36-.12-.38-.18-.16-.1.24-.4-.1-.08-.28-.49-.72-.42-.89.44.81.08-.17.51.49a3.17,3.17,0,0,1-.29-.48s0,0,.09,0c-.41-.82-.36-.26-.95-1,.14,0,0-.28-.15-.37.28.27,0,.22-.28,0-.38-.47-.53-.38-.77-.57l.27.23a3,3,0,0,1-.75-.37c0-.08.34.16.24.05-.46-.1-.85-.64-1.51-.73-.26-.14,0-.17-.22-.28-.73-.05-.75-.29-1.52-.28.21.14.24.11-.28.19a10.07,10.07,0,0,1,1.22.06,7,7,0,0,0-.8.06,7.27,7.27,0,0,1,1,.1c-.39,0-.34,0-.19.13-.46-.27-1,0-1.53-.18l0-.3a11.68,11.68,0,0,0-2.64.23h.36c-.14.13-.68.1-1,.21,0-.1-.21-.11-.37-.13,0,.07-.79.15-.85.36l-.5,0c-.89.13-.94.46-1.76.65.22-.17-.17-.14.36-.36-.27.08-.53.12-.51.19-.18,0-.73.33-1,.3a.71.71,0,0,1-.42.25s0,0,0,0-.46.19-.16.22c-.92,0-2.33.72-3.12.74-.57.24-1.26.52-1.79.71,0,0,0,0,.09-.07-.76.18-.34.43-1.2.66-.47,0,.41-.25.12-.21-.23-.25-1,.43-1.59.47l.13-.07A15.13,15.13,0,0,0,81.6,5s0,0,0,0A13.55,13.55,0,0,1,79.7,6c.15-.21.27-.19.09-.26-.28.15.17.15-.39.45-.22,0-.66.15-.78,0L79.17,6c-.36,0-.71.32-1,.42V6.34c-.83.41-.76.59-1.66,1l.12,0c-.41.4-.46.08-.88.44l-.23-.11c-.31.2-1,.7-1.61,1a12,12,0,0,1,1.29-.94A5.78,5.78,0,0,0,74,8.43a1.39,1.39,0,0,1,.41-.23A5.11,5.11,0,0,1,73,9.12c0-.4-1.7.69-2.29.63a32.67,32.67,0,0,1-3.57,1.54c.58.07-.38.18-.18.42a1.56,1.56,0,0,1-.46.2l-1,.21c-.26,0,.27-.18.21-.23-.68.25-.33,0-.81.1.13.06-.18.24-.58.36l.6-.09c-.89.54-.91.1-1.82.6l.27-.2a12.77,12.77,0,0,0-2.24,1.07c-.1,0-.24,0,0-.14-.6.18-1.25.47-1.87.72a7.66,7.66,0,0,1-1.72.5l.08-.09c-.22.08-.36.24-.66.25,0,0,.07-.1,0-.07a3,3,0,0,1-.88.31l.24-.14c-1.21.19-1.79.61-2.8.81,0-.22-1-.16-1.45-.17v0a22.38,22.38,0,0,1-3.64.09c-.37-.2-1-.37-1.68-.64a6.48,6.48,0,0,1-1.82-1.07c.14.13-.12.13-.31,0s-.74-.4-.57-.53l.08.08c0-.3-.51-.66-.79-1l-.25.11c-.24-.61-.68-1.25-1-1.92a2.4,2.4,0,0,1-.26-1.66,9.11,9.11,0,0,1-.13-1l.14,0c0-.44.06-.78,0-1.16a4.42,4.42,0,0,0-.22-1.45l.17.23A1.19,1.19,0,0,0,41.26,5c-.21-.16-.42-.28-.67-.49l0-.3a3.5,3.5,0,0,0-1.84-.59,5.91,5.91,0,0,0-1.64.12s0-.09.22-.11c-.51,0-2,0-1.78.24,0-.19-1.11.08-1.68.22L33.92,4a3.41,3.41,0,0,1-1.16.41c-.16,0-.16-.09.06-.09-.54,0-.4.19-1.06.21L32,4.39a1.37,1.37,0,0,0-.79.25,2.23,2.23,0,0,1-1.15,0,1.08,1.08,0,0,1-.67.27c-.05,0,.06-.09.12-.12-.94.07-1.34.4-2,.41a.12.12,0,0,0-.12,0,10.13,10.13,0,0,1,1.26-.24c0-.13-.62,0-.18-.3a8.47,8.47,0,0,1-1.8.63l-.09,0,.06,0a1.26,1.26,0,0,0-.36.1l-.48.06c-.09-.09-.68.12-1,.19.06.13-.32.2.06.22-.05,0,.05,0,.24-.08l.12,0,0,0c.19,0,.44-.13.72-.19a1.5,1.5,0,0,1-.77.25c-.13.12-.27.26-.35.32-.44-.09-1.23,0-1.37-.09A11,11,0,0,0,20.94,7a.47.47,0,0,1-.41,0,2.09,2.09,0,0,0,.37-.19c-.47.23-1.45.5-1.51.71-.65.12.29-.27-.55,0l.1-.09c-1.77.28-2.55,1.36-4.5,1.69.13,0,.2,0,.24,0-2.15.62-4.21,1.8-6.32,2.41a2.18,2.18,0,0,0-.93.56L7.25,12l-.53.42c-.79.48-1.61.29-2.58,1l.18,0c-.39.16-1.19.6-1.17.46a.32.32,0,0,1-.25.17l0-.07L2,14.58c-.75.27,0-.34-1.08.12-.38.2-1,.71-.86.69s.43-.13.47-.07l-.34.2c0,.24-.15.59.8.34l.56-.41.24,0-.52.24a1.14,1.14,0,0,0,.67-.36.54.54,0,0,0,.31,0l.52-.48c.11.05-.2.29.23.15.24-.22-.36-.06.08-.33.34,0,.29.08.6-.15.07,0,0,.1-.11.18.28-.2.8-.39.91-.57.36,0,1-.49,1.09-.28a3.13,3.13,0,0,1,.75-.52c-.41.46,1.07-.45,1-.13.29-.38,1.35-.69,2-1.1a.42.42,0,0,1-.16.12,3.72,3.72,0,0,1,.8-.19c0-.2.55-.49.83-.73.55,0-.2.33,0,.43-.08-.13.76-.48.55-.53.41,0,.33-.08.58,0,0-.26.32-.18.57-.43.57-.1.22.16.77-.14C13.58,10.61,13.1,10.9,13.1,10.9ZM27,6.07h0l-.3.07Zm1.21-.27-.53.11c-.05,0,0-.09.11-.12C27.74,5.84,28,5.8,28.22,5.8Zm-2.79-.37c.19-.07.26-.06.29,0l-.33.11,0,0A.24.24,0,0,1,25.43,5.43Z" transform="translate(0)"/><path class="cls-1" d="M25.13,5.7l-.08,0h.13l.05-.06Z" transform="translate(0)"/><path class="cls-1" d="M122.11,8.28h0Z" transform="translate(0)"/><polygon class="cls-1" points="40.49 9.43 40.53 9.43 40.49 9.31 40.49 9.43"/><path class="cls-1" d="M128.84,6.9h0Z" transform="translate(0)"/><path class="cls-1" d="M131.7,6.13l.42-.07Z" transform="translate(0)"/><path class="cls-1" d="M133.92,5.58a.11.11,0,0,0,0-.07h0Z" transform="translate(0)"/><path class="cls-1" d="M102.82,2.24l-.07-.05C102.58,2.12,102.69,2.17,102.82,2.24Z" transform="translate(0)"/><path class="cls-1" d="M109.16,10.65l-.36-.13C109,10.63,109.11,10.71,109.16,10.65Z" transform="translate(0)"/><polygon class="cls-1" points="91.64 2.51 91.64 2.51 91.57 2.53 91.64 2.51"/><path class="cls-1" d="M108.38,10.2a1.87,1.87,0,0,0,.42.32A3.32,3.32,0,0,0,108.38,10.2Z" transform="translate(0)"/><path class="cls-1" d="M143.44,3l.11,0s0,0,0,0Z" transform="translate(0)"/><path class="cls-1" d="M143.55,2.93l.12-.05A.35.35,0,0,0,143.55,2.93Z" transform="translate(0)"/><path class="cls-1" d="M143.9,2.78l-.23.1A.49.49,0,0,0,143.9,2.78Z" transform="translate(0)"/><path class="cls-1" d="M140.52,3.73l0,.06A.11.11,0,0,0,140.52,3.73Z" transform="translate(0)"/><path class="cls-1" d="M139.64,4a5.17,5.17,0,0,0,.84-.15l0,0C140.38,3.9,139.82,3.85,139.64,4Z" transform="translate(0)"/><path class="cls-1" d="M135.79,4.42l.75-.17c-.15,0-.34,0,0-.15C135.56,4.21,136.76,4.17,135.79,4.42Z" transform="translate(0)"/><path class="cls-1" d="M133.47,5c.39-.13,0-.07,0-.11C133.22,5,133.16,5,133.47,5Z" transform="translate(0)"/><path class="cls-1" d="M116.9,9.62V9.49C116.61,9.59,116.92,9.54,116.9,9.62Z" transform="translate(0)"/><polygon class="cls-1" points="113.89 11.12 114.21 11.12 114.33 10.97 113.89 11.12"/><path class="cls-1" d="M111.88,10.48l.12,0a3.91,3.91,0,0,1-.48.05Z" transform="translate(0)"/><path class="cls-1" d="M88.09,2.28l.14.12C88.43,2.31,88.42,2.13,88.09,2.28Z" transform="translate(0)"/><path class="cls-1" d="M76.58,7.21a1,1,0,0,0-.67.24A6.63,6.63,0,0,0,76.58,7.21Z" transform="translate(0)"/><path class="cls-1" d="M42.78,12.09l.18.16c-.09-.11-.2-.22-.28-.33Z" transform="translate(0)"/></g></g></svg>